<?xml version="1.0" encoding="UTF-8"?><svg id="Capa_2" xmlns="http://www.w3.org/2000/svg" viewBox="0 0 341.6 674.7"><g id="design"><path d="m263.5,631.9c-.7.2-1.4.4-2.1.6-.4-.6-.9-1.3-1.4-1.9-.4-.5-1-.8-1.7-.7-.6,0-1.3.5-1.4,1.1-.2,1-.4,2-.6,3-1.2.3-2.3.7-3.5,1-1.6.5-1.7,2.6,0,3,.8.2,1.7.4,2.5.7,0,.3-.1.5-.2.8,0,.1,0,.2,0,.3,0,0,0,0-.1.1-.6.6-.7,1.6,0,2.2.6.6,1.8.6,2.4,0,.8-.8,1.6-1.6,2.4-2.3,1,.3,2,.5,2.9.8,1.2.3,2.6-.8,2.1-1.9-.4-.9-.8-1.7-1.3-2.6.5-.5,1.1-1,1.6-1.6,1.1-1.1,0-3.1-1.7-2.6Z" fill="#efb1b4"/><path d="m48.8,610.3c-.7.2-1.4.4-2.1.6-.4-.6-.9-1.3-1.4-1.9-.4-.5-1-.8-1.7-.7-.6,0-1.3.5-1.4,1.1-.2,1-.4,2-.6,3-1.2.3-2.3.7-3.5,1-1.6.5-1.7,2.6,0,3,.8.2,1.7.4,2.5.7,0,.3-.1.5-.2.8,0,.1,0,.2,0,.3,0,0,0,0-.1.1-.6.6-.7,1.6,0,2.2.6.6,1.8.6,2.4,0l2.4-2.3c1,.3,2,.5,2.9.8,1.2.3,2.6-.8,2.1-1.9-.4-.9-.8-1.7-1.3-2.6.5-.5,1.1-1,1.6-1.6,1.1-1.1,0-3.1-1.7-2.6Z" fill="#e2def0"/><path d="m128.3,641.6c-.7.2-1.4.4-2.1.6-.4-.6-.9-1.3-1.4-1.9-.4-.5-1-.8-1.7-.7-.6,0-1.3.5-1.4,1.1-.2,1-.4,2-.6,3-1.2.3-2.3.7-3.5,1-1.6.5-1.7,2.6,0,3,.8.2,1.7.4,2.5.7,0,.3-.1.5-.2.8,0,.1,0,.2,0,.3,0,0,0,0-.1.1-.6.6-.7,1.6,0,2.2.6.6,1.8.6,2.4,0,.8-.8,1.6-1.6,2.4-2.3,1,.3,2,.5,2.9.8,1.2.3,2.6-.8,2.1-1.9-.4-.9-.8-1.7-1.3-2.6.5-.5,1.1-1,1.6-1.6,1.1-1.1,0-3.1-1.7-2.6Z" fill="#d5f2e2"/><path d="m339.5,2.1c-.7.2-1.4.4-2.1.6-.4-.6-.9-1.3-1.4-1.9-.4-.5-1-.8-1.7-.7-.6,0-1.3.5-1.4,1.1-.2,1-.4,2-.6,3-1.2.3-2.3.7-3.5,1-1.6.5-1.7,2.6,0,3,.8.2,1.7.4,2.5.7,0,.3-.1.5-.2.8,0,.1,0,.2,0,.3,0,0,0,0-.1.1-.6.6-.7,1.6,0,2.2.6.6,1.8.6,2.4,0,.8-.8,1.6-1.6,2.4-2.3,1,.3,2,.5,2.9.8,1.2.3,2.6-.8,2.1-1.9-.4-.9-.8-1.7-1.3-2.6.5-.5,1.1-1,1.6-1.6,1.1-1.1,0-3.1-1.7-2.6Z" fill="#d5f2e2"/><path d="m82.3,36.1c-.7.2-1.4.4-2.1.6-.4-.6-.9-1.3-1.4-1.9-.4-.5-1-.8-1.7-.7-.6,0-1.3.5-1.4,1.1-.2,1-.4,2-.6,3-1.2.3-2.3.7-3.5,1-1.6.5-1.7,2.6,0,3,.8.2,1.7.4,2.5.7,0,.3-.1.5-.2.8,0,.1,0,.2,0,.3,0,0,0,0-.1.1-.6.6-.7,1.6,0,2.2.6.6,1.8.6,2.4,0,.8-.8,1.6-1.6,2.4-2.3,1,.3,2,.5,2.9.8,1.2.3,2.6-.8,2.1-1.9-.4-.9-.8-1.7-1.3-2.6.5-.5,1.1-1,1.6-1.6,1.1-1.1,0-3.1-1.7-2.6Z" fill="#d5f2e2"/><path d="m24.4,142.4c-.7.2-1.4.4-2.1.6-.4-.6-.9-1.3-1.4-1.9-.4-.5-1-.8-1.7-.7-.6,0-1.3.5-1.4,1.1-.2,1-.4,2-.6,3-1.2.3-2.3.7-3.5,1-1.6.5-1.7,2.6,0,3,.8.2,1.7.4,2.5.7,0,.3-.1.5-.2.8,0,.1,0,.2,0,.3,0,0,0,0-.1.1-.6.6-.7,1.6,0,2.2.6.6,1.8.6,2.4,0,.8-.8,1.6-1.6,2.4-2.3,1,.3,2,.5,2.9.8,1.2.3,2.6-.8,2.1-1.9-.4-.9-.8-1.7-1.3-2.6.5-.5,1.1-1,1.6-1.6,1.1-1.1,0-3.1-1.7-2.6Z" fill="#f8cadb"/><path d="m57.8,109.7v-.7c0-.6-.1-1.2-.4-1.7-.2-.5-.5-1-.9-1.4-.4-.4-.9-.7-1.4-.9-.5-.3-1.1-.4-1.7-.4-.4,0-.8.1-1.2.2-.7.2-1.4.6-1.9,1.1-.2.3-.5.6-.7.9-.4.7-.6,1.4-.6,2.2v.7c0,.6.1,1.2.4,1.7.2.5.5,1,.9,1.4.4.4.9.7,1.4.9.5.3,1.1.4,1.7.4.4,0,.8-.1,1.2-.2.7-.2,1.4-.6,1.9-1.1.2-.3.5-.6.7-.9.4-.7.6-1.4.6-2.2h0Z" fill="#efb1b4"/><path d="m33.4,41.5h-.5c-2.3,0-4.4,2-4.3,4.3.1,2.3,1.9,4.3,4.3,4.3h.5c2.3,0,4.4-2,4.3-4.3-.1-2.3-1.9-4.3-4.3-4.3h-.5c-2.3,0-4.4,2-4.3,4.3.1,2.3,1.9,4.3,4.3,4.3h.5c2.3,0,4.4-2,4.3-4.3-.1-2.3-1.9-4.3-4.3-4.3h0Z" fill="#fff9c5"/><path d="m64.2,653.6c-.2.2-.5.5-.7.7-.4.4-.7.9-.9,1.4-.3.5-.4,1.1-.4,1.7,0,.6.1,1.2.4,1.7.2.5.5,1,.9,1.4.3.2.6.5.9.7.7.4,1.4.6,2.2.6.4,0,.8-.1,1.2-.2.7-.2,1.4-.6,1.9-1.1.2-.2.5-.5.7-.7.4-.4.7-.9.9-1.4.3-.5.4-1.1.4-1.7,0-.6-.1-1.2-.4-1.7-.2-.5-.5-1-.9-1.4-.3-.2-.6-.5-.9-.7-.7-.4-1.4-.6-2.2-.6-.4,0-.8.1-1.2.2-.7.2-1.4.6-1.9,1.1h0Z" fill="#efb1b4"/><path d="m102.5,27.9c2.3,0,4.4-2,4.3-4.3-.1-2.3-1.9-4.3-4.3-4.3s-4.4,2-4.3,4.3c.1,2.3,1.9,4.3,4.3,4.3h0Z" fill="#efb1b4"/><path d="m130.4,619c2.3,0,4.4-2,4.3-4.3-.1-2.3-1.9-4.3-4.3-4.3s-4.4,2-4.3,4.3c.1,2.3,1.9,4.3,4.3,4.3h0Z" fill="#e2def0"/><path d="m13.2,620.9c-.2-3.5-2.9-6.3-6.5-6.3-1.7,0-3.4.7-4.6,1.9-1.4,1.3-1.9,2.8-2.1,4.6,0,.3,0,.5,0,.8,0,.4,0,.8.2,1.2.6,1.6,1.5,2.9,3,3.8,1.5.9,3.2,1,4.9.7,3.1-.5,5.2-3.7,5-6.7Zm-4.6.6c0,.2,0,.3,0,.5,0,0,0,0,0,.1,0-.2.1-.4.1-.6Zm0,.5c0-.4.3-.6,0,0h0Z" fill="#f8cadb"/><path d="m181.8,634.8c-.3,0-.6,0-.9,0-1.6-.1-3.3.5-4.5,1.7-1.6,1.6-2,4.1-1.3,6.2.7,2.3,2.6,3.8,4.8,4.6,2.2.7,4.5.4,6.2-1.2,1.2-1.2,1.9-2.9,1.9-4.5,0-3.6-2.5-6.6-6.1-6.8Z" fill="#fff9c5"/><path d="m247.1,674.7c2.3,0,4.4-2,4.3-4.3-.1-2.3-1.9-4.3-4.3-4.3s-4.4,2-4.3,4.3c.1,2.3,1.9,4.3,4.3,4.3h0Z" fill="#d5f2e2"/><path d="m232.4,609.5v.7c0,.6.1,1.2.4,1.7.2.5.5,1,.9,1.4.4.4.9.7,1.4.9.5.3,1.1.4,1.7.4.4,0,.8-.1,1.2-.2.7-.2,1.4-.6,1.9-1.1.2-.3.5-.6.7-.9.4-.7.6-1.4.6-2.2v-.7c0-.6-.1-1.2-.4-1.7-.2-.5-.5-1-.9-1.4-.4-.4-.9-.7-1.4-.9-.5-.3-1.1-.4-1.7-.4-.4,0-.8.1-1.2.2-.7.2-1.4.6-1.9,1.1-.2.3-.5.6-.7.9-.4.7-.6,1.4-.6,2.2h0Z" fill="#fff9c5"/><path d="m314,652.5c2.3,0,4.4-2,4.3-4.3-.1-2.3-1.9-4.3-4.3-4.3s-4.4,2-4.3,4.3c.1,2.3,1.9,4.3,4.3,4.3h0Z" fill="#f8cadb"/><path d="m205.7,50c3.2,0,6.3-2.8,6.2-6.2-.2-3.4-2.7-6.2-6.2-6.2s-6.3,2.8-6.2,6.2c.2,3.4,2.7,6.2,6.2,6.2h0Z" fill="#fff9c5"/><path d="m19.4,549.2c3.2,0,6.3-2.8,6.2-6.2-.2-3.4-2.7-6.2-6.2-6.2s-6.3,2.8-6.2,6.2c.2,3.4,2.7,6.2,6.2,6.2h0Z" fill="#e2def0"/><path d="m272.6,37.3c3.2,0,6.3-2.8,6.2-6.2-.2-3.4-2.7-6.2-6.2-6.2s-6.3,2.8-6.2,6.2c.2,3.4,2.7,6.2,6.2,6.2h0Z" fill="#f8cadb"/><path d="m312.7,94.3c3.2,0,6.3-2.8,6.2-6.2-.2-3.4-2.7-6.2-6.2-6.2s-6.3,2.8-6.2,6.2c.2,3.4,2.7,6.2,6.2,6.2h0Z" fill="#efb1b4"/></g></svg>