<?xml version="1.0" encoding="UTF-8"?><svg id="Capa_2" xmlns="http://www.w3.org/2000/svg" viewBox="0 0 26.1 22.4"><g id="design"><path d="m0,11.2c0-.2,0-.4.1-.6.2-.6.8-1.1,1.3-1.6.2-.2.4-.4.5-.5,1.3-1.4,2.6-2.7,3.9-4.1.2-.2.5-.5.7-.7.7-.7,1.4-1.4,2-2.1,0,0,.1-.1.2-.2.5-.5,1.1-1.3,1.9-1.5.3,0,.7,0,1,.2.3.2.5.6.5.9,0,1.3,0,2.7,0,4v.2c0,.4,0,.5,0,.5,0,0,0,0,.5.1.9,0,1.8,0,2.7,0,.4,0,.9,0,1.4,0h8.1c.4,0,.7.1.8.3.4.4.3,1,.3,1.4,0,0,0,.2,0,.2,0,.6,0,1.2,0,1.9,0,.3,0,.6,0,.9v3.9c0,0,0,.2,0,.3,0,.5.1,1.2-.2,1.6,0,0,0,0-.1.1h0c-.4.4-1,.3-1.4.3,0,0-.2,0-.2,0h-2.7c-.9,0-1.8,0-2.7,0-1.1,0-2.2,0-3.3,0-.9,0-1.9,0-2.8.1,0,.5,0,1.1,0,1.6,0,.5,0,1,0,1.4,0,.4,0,.9,0,1.3,0,.5-.2.9-.6,1.1-.4.2-.9.2-1.2-.1-.6-.4-1.1-.9-1.6-1.4-.2-.2-.4-.4-.6-.6-3-2.7-5.3-4.9-7.3-7.2,0-.1-.2-.2-.3-.3C.5,12.3,0,11.9,0,11.2ZM11.1,1.5c0,0,0-.2,0-.3,0,0,0,0,0,0,0,0,0,0,0,0-.5.1-1,.7-1.4,1.1,0,0-.1.1-.2.2-.7.7-1.4,1.5-2.1,2.2-.2.2-.5.5-.7.7-1.3,1.3-2.6,2.7-3.9,4-.2.2-.4.4-.6.6-.4.4-.9.9-1.1,1.2,0,.2,0,.3.5.8.1.1.2.2.3.4,2,2.3,4.3,4.5,7.2,7.1.2.2.4.4.6.6.5.4,1,.9,1.5,1.3h0s0,0,0,0c0,0,0,0,0,0,0-.5,0-.9,0-1.4,0-.5,0-.9,0-1.3,0-.6,0-1.3,0-1.9,0-.1,0-.4.3-.6.2-.2.4-.2.5-.2,1-.1,2-.1,3-.1,1.1,0,2.2,0,3.3,0,.9,0,1.8,0,2.7,0h2.7c.1,0,.2,0,.3,0,.1,0,.4,0,.5,0,0-.2,0-.6,0-.8,0-.2,0-.3,0-.4v-3.9c0-.3,0-.6,0-.9,0-.6,0-1.2,0-1.9,0-.1,0-.2,0-.3,0-.1,0-.4,0-.5h0s-8.1,0-8.1,0c-.4,0-.9,0-1.3,0-.9,0-1.8,0-2.8,0-1.2,0-1.6-.6-1.6-1.7v-.2c0-1.2,0-2.5,0-3.7Z" fill="#606060"/></g></svg>