<?xml version="1.0" encoding="UTF-8"?><svg xmlns="http://www.w3.org/2000/svg" xmlns:xlink="http://www.w3.org/1999/xlink" viewBox="0 0 217.55 190.58"><defs><style>.cls-1,.cls-2{fill:none;}.cls-3{clip-path:url(#clippath);}.cls-4,.cls-5{fill:#ec407a;}.cls-4,.cls-6{font-size:4.58px;}.cls-4,.cls-6,.cls-7,.cls-8,.cls-9{font-family:Arial-BoldMT, Arial;font-weight:700;}.cls-10{fill:#00a89c;}.cls-11{fill:#fff8c4;}.cls-12{fill:#f1f3f4;}.cls-13,.cls-9{fill:#916b9d;}.cls-14{fill:#e1ddef;}.cls-6,.cls-7{fill:#4d4d4d;}.cls-7{font-size:9.83px;}.cls-15{letter-spacing:-.04em;}.cls-16{letter-spacing:0em;}.cls-17{letter-spacing:-.07em;}.cls-18{letter-spacing:-.07em;}.cls-19{letter-spacing:-.05em;}.cls-20{fill:#fff;stroke:#f8bbd0;}.cls-20,.cls-2{stroke-miterlimit:10;}.cls-2{stroke:#fff;stroke-width:4px;}.cls-8{fill:#66cbc4;}.cls-8,.cls-9{font-size:5px;}.cls-21{isolation:isolate;}.cls-22{fill:url(#radial-gradient);mix-blend-mode:multiply;opacity:.2;}</style><clipPath id="clippath"><rect class="cls-1" x="0" width="217.55" height="190.58" rx="24.7" ry="24.7"/></clipPath><radialGradient id="radial-gradient" cx="2468.38" cy="-1051.03" fx="2468.38" fy="-1051.03" r="15.64" gradientTransform="translate(-1864.73 357.52) scale(.76 .23)" gradientUnits="userSpaceOnUse"><stop offset=".18" stop-color="#424242"/><stop offset=".25" stop-color="#6c6c6c"/><stop offset=".33" stop-color="#939393"/><stop offset=".41" stop-color="#b4b4b4"/><stop offset=".49" stop-color="#cfcfcf"/><stop offset=".59" stop-color="#e4e4e4"/><stop offset=".69" stop-color="#f3f3f3"/><stop offset=".81" stop-color="#fcfcfc"/><stop offset="1" stop-color="#fff"/></radialGradient></defs><g class="cls-21"><g id="Capa_2"><g id="design"><g class="cls-3"><rect class="cls-12" x="-3.03" y="-1.02" width="226.67" height="194.64"/><rect class="cls-14" x="36.7" y="89.98" width="19.54" height="39.15" rx="2.53" ry="2.53"/><path class="cls-14" d="m55.21,132.47h-24.84V24.3c0-.53-.43-.97-.97-.97H.97C.43,23.34,0,23.77,0,24.3v156.47C0,181.31.43,181.74.97,181.74h28.44c.14,0,.27-.03.39-.09.12.05.25.09.39.09h25.02c.53,0,.97-.43.97-.97v-47.34c0-.53-.43-.97-.97-.97Z"/><rect class="cls-14" x="58.5" y="23.34" width="19.54" height="63.66" rx="2.53" ry="2.53"/><rect class="cls-14" x="36.7" y="23.34" width="19.54" height="63.66" rx="2.53" ry="2.53"/><rect class="cls-14" x="79.59" y="23.34" width="19.54" height="63.66" rx="2.53" ry="2.53"/><rect class="cls-14" x="100.53" y="23.34" width="19.54" height="63.66" rx="2.53" ry="2.53"/><path class="cls-14" d="m163.25,86.99h-40.94c-.53,0-.97-.43-.97-.97V24.3c0-.53.43-.97.97-.97h17.9c.4,0,.76.25.91.63l23.03,61.73c.24.63-.23,1.3-.91,1.3Z"/><rect class="cls-14" x="57.85" y="89.98" width="19.54" height="39.15" rx="2.53" ry="2.53"/><rect class="cls-14" x="79" y="89.98" width="19.54" height="39.15" rx="2.53" ry="2.53"/><rect class="cls-14" x="100.53" y="89.98" width="19.54" height="39.15" rx="2.53" ry="2.53"/><rect class="cls-14" x="122.83" y="89.98" width="19.54" height="39.15" rx="2.53" ry="2.53"/><rect class="cls-14" x="144.16" y="89.98" width="19.54" height="39.15" rx="2.53" ry="2.53"/><rect class="cls-14" x="144.16" y="132.12" width="19.54" height="50.41" rx="2.53" ry="2.53"/><rect class="cls-14" x="57.85" y="132.12" width="84.52" height="50.41" rx="2.53" ry="2.53"/><path class="cls-14" d="m200.33,182.53h-33.19c-.53,0-.97-.43-.97-.97v-86.37c0-1.07,1.48-1.35,1.87-.35l33.19,86.37c.24.63-.22,1.31-.9,1.31Z"/><ellipse class="cls-22" cx="17.65" cy="117.36" rx="11.92" ry="3.57"/><path class="cls-5" d="m27.42,100.07c0,6.97-9.8,17.29-9.8,17.29,0,0-9.8-10.32-9.8-17.29s4.39-10.58,9.8-10.58,9.8,3.61,9.8,10.58Z"/><circle class="cls-20" cx="17.62" cy="99.42" r="7.52" transform="translate(-83.09 92.08) rotate(-75.78)"/><path class="cls-5" d="m22.68,98.79c0-1.49-1.21-2.7-2.7-2.7-1.02,0-1.9.56-2.36,1.39-.46-.83-1.35-1.39-2.36-1.39-1.49,0-2.7,1.21-2.7,2.7,0,0-.26,3.04,5.07,5.22h0s0,0,0,0c0,0,0,0,0,0h0c5.33-2.18,5.07-5.22,5.07-5.22Z"/><text class="cls-6" transform="translate(112.27 131.39)"><tspan x="0" y="0">Fray Lus Beltran</tspan></text><text class="cls-6" transform="translate(172 185.02)"><tspan x="0" y="0">Borrini</tspan></text><text class="cls-6" transform="translate(56.24 63.27) rotate(90)"><tspan class="cls-15" x="0" y="0">A</tspan><tspan class="cls-18" x="3.14" y="0">v</tspan><tspan x="5.35" y="0">. Peñaloza</tspan></text><polyline class="cls-2" points="217.39 202.83 165.79 71.33 98.09 -90.84 166.17 55.16 220.88 199.36"/><text class="cls-4" transform="translate(7.82 122.66)"><tspan x="0" y="0">Club de </tspan><tspan x="0" y="5.5">Municipales</tspan></text><text class="cls-6" transform="translate(98.54 28.86) rotate(90)"><tspan x="0" y="0">C. Juan Felipe Ibarra</tspan></text><text class="cls-6" transform="translate(120.07 28.14) rotate(90)"><tspan x="0" y="0">C. Francisco Ramirez</tspan></text><text class="cls-6" transform="translate(82.1 22.58)"><tspan class="cls-15" x="0" y="0">A</tspan><tspan class="cls-17" x="3.14" y="0">v</tspan><tspan class="cls-16" x="5.35" y="0">. </tspan><tspan class="cls-19" x="7.89" y="0">V</tspan><tspan x="10.7" y="0">elez Sarfield</tspan></text><text class="cls-9" transform="translate(112.04 9.31) scale(.97 1)"><tspan x="0" y="0">Estación de</tspan><tspan x="0" y="6">Servicio Shell</tspan></text><text class="cls-8" transform="translate(146.92 118.84) scale(.97 1)"><tspan x="0" y="0">Hotel</tspan><tspan x="0" y="5">del Pomar</tspan></text><text class="cls-6" transform="translate(56.24 139.58) rotate(90)"><tspan class="cls-15" x="0" y="0">A</tspan><tspan class="cls-18" x="3.14" y="0">v</tspan><tspan x="5.35" y="0">. Peñaloza</tspan></text><path class="cls-11" d="m179.79,102.28l-4.46-5.1c-.35-.4-.56-.9-.6-1.43l-.51-6.76c-.08-1.06.53-2.05,1.5-2.46l9.76-4.09c1.25-.53,2.7.06,3.22,1.32l4.97,11.86c.53,1.25-.06,2.7-1.32,3.22l-9.76,4.09c-.98.41-2.11.15-2.81-.65Z"/><text class="cls-7" transform="translate(178.86 88.52) rotate(67.25)"><tspan x="0" y="0">16</tspan></text><g id="_9VhU1Y"><path class="cls-13" d="m99.62,15.8c0-.17,0-.33,0-.5,0,0,.02-.02.02-.03.02-.15.18-.32.38-.33.12,0,.25,0,.37,0,.1,0,.1,0,.1-.1,0-.95,0-1.89,0-2.84,0-.93,0-1.87,0-2.8,0-.88,0-1.76,0-2.64,0-.27,0-.55.01-.82.02-.29.13-.54.32-.75.2-.22.44-.36.73-.41.03,0,.07,0,.1-.01-.01,0-.02-.01-.03-.02,1.42,0,2.83,0,4.25,0-.02,0-.03,0-.05.01.01,0,.02,0,.04.01.06.01.12.02.18.03.33.1.58.29.76.59.13.22.19.46.19.71,0,.84,0,1.68,0,2.53,0,.55,0,1.11,0,1.66,0,.03,0,.06,0,.09.06,0,.11,0,.16,0,.24,0,.48.02.71.09.37.12.62.37.74.74.07.22.1.45.11.69.02.35,0,.7.04,1.04.02.23.04.47.1.7.04.17.09.34.2.48.06.07.12.13.22.14.06,0,.11,0,.17,0,.1,0,.18-.04.25-.12.1-.11.14-.24.19-.38.11-.35.12-.71.15-1.07.02-.26,0-.52.01-.78,0-.42,0-.84,0-1.26,0-.06-.02-.1-.07-.14-.05-.04-.1-.09-.14-.14-.12-.11-.23-.23-.35-.34-.18-.18-.36-.36-.51-.56-.15-.2-.21-.42-.22-.66,0-.39,0-.78,0-1.17,0-.06-.02-.1-.06-.15-.24-.24-.47-.47-.7-.71-.14-.14-.29-.28-.43-.43-.18-.19-.16-.48.04-.63.14-.11.28-.13.44-.05.06.03.12.08.17.13.25.25.5.5.75.76.36.37.71.73,1.06,1.1.23.24.45.49.63.77.15.23.24.48.24.76,0,.7,0,1.4,0,2.1,0,.57,0,1.15-.04,1.72-.02.3-.06.59-.13.88-.05.22-.13.42-.24.61-.15.24-.33.43-.6.54-.26.11-.53.12-.8.07-.24-.05-.45-.16-.62-.34-.14-.15-.24-.32-.32-.51-.11-.27-.18-.55-.21-.85-.03-.31-.05-.63-.07-.94-.01-.22-.01-.45-.02-.67,0-.12-.02-.24-.07-.35-.04-.09-.1-.14-.2-.17-.17-.04-.33-.04-.5-.04-.08,0-.08,0-.08.08,0,0,0,0,0,.01,0,.59,0,1.18,0,1.76,0,.66,0,1.33,0,1.99,0,.04,0,.05.04.05.14,0,.28,0,.41,0,.23.02.4.2.4.44,0,.13,0,.26,0,.38,0,.01,0,.03,0,.04h-8.22Zm4.12-10.39h0c-.25,0-.51,0-.76,0-.39,0-.78,0-1.18,0-.15,0-.27.05-.36.17-.07.08-.09.18-.09.29,0,.52,0,1.03,0,1.55,0,.35,0,.71,0,1.06,0,.05.01.1.04.15.08.18.23.25.42.25.38,0,.76,0,1.13,0,.9,0,1.81,0,2.71,0,.17,0,.3-.06.39-.2.05-.08.06-.16.06-.25,0-.24,0-.47,0-.71,0-.61,0-1.23,0-1.84,0-.27-.22-.46-.45-.46-.64,0-1.29,0-1.93,0Z"/></g><g id="L7jtOq"><path class="cls-10" d="m147.2,113.72c-.07-.05-.1-.12-.1-.21,0-2.69,0-5.39,0-8.08,0-.16.05-.21.21-.21.22,0,.44,0,.68,0,0-.04,0-.08,0-.12,0-.69,0-1.38,0-2.08,0-.17.04-.21.21-.21,1.99,0,3.98,0,5.96,0,.17,0,.21.04.21.21,0,.69,0,1.38,0,2.07,0,.04,0,.08,0,.13.23,0,.45,0,.66,0,.18,0,.22.04.22.22,0,2.69,0,5.37,0,8.06,0,.09-.02.17-.1.22h-7.97Zm.21-.3h2.25v-.12c0-.55,0-1.09,0-1.64,0-.18.04-.22.22-.22.87,0,1.75,0,2.62,0,.18,0,.22.04.22.23,0,.55,0,1.09,0,1.64,0,.04,0,.08,0,.11h2.25v-7.89h-7.55v7.89Zm.89-10.3v2.1h5.78v-2.1h-5.78Zm3.05,8.62v1.68h1.07v-1.68h-1.07Zm-.31,0h-1.07v1.68h1.07v-1.68Z"/><path class="cls-10" d="m148.88,106.07c.25,0,.5,0,.74,0,.14,0,.19.05.19.19,0,.33,0,.65,0,.98,0,.14-.05.19-.19.19-.49,0-.99,0-1.48,0-.14,0-.19-.05-.19-.19,0-.33,0-.65,0-.98,0-.14.05-.19.19-.19.24,0,.49,0,.73,0Zm.64.31h-1.26v.75h1.26v-.75Z"/><path class="cls-10" d="m153.48,106.07c.25,0,.5,0,.74,0,.14,0,.19.05.19.19,0,.33,0,.65,0,.98,0,.14-.05.19-.19.19-.49,0-.99,0-1.48,0-.14,0-.19-.05-.19-.19,0-.33,0-.65,0-.98,0-.14.05-.19.19-.19.24,0,.49,0,.73,0Zm-.62.3v.75h1.25v-.75h-1.25Z"/><path class="cls-10" d="m148.88,107.79c.25,0,.5,0,.76,0,.13,0,.18.05.18.18,0,.33,0,.67,0,1,0,.13-.05.18-.18.18-.5,0-1,0-1.5,0-.13,0-.18-.05-.18-.18,0-.33,0-.67,0-1,0-.13.05-.18.18-.18.25,0,.5,0,.74,0Zm-.62,1.06h1.25v-.75h-1.25v.75Z"/><path class="cls-10" d="m153.48,107.79c.25,0,.5,0,.76,0,.13,0,.18.05.18.18,0,.33,0,.67,0,1,0,.13-.05.18-.18.18-.5,0-1,0-1.5,0-.13,0-.18-.06-.18-.18,0-.33,0-.67,0-1,0-.13.05-.18.18-.18.25,0,.5,0,.74,0Zm-.62,1.06h1.25v-.76h-1.25v.76Z"/><path class="cls-10" d="m153.47,110.88c-.24,0-.48,0-.72,0-.16,0-.2-.05-.2-.2,0-.32,0-.65,0-.97,0-.14.05-.19.19-.19.49,0,.99,0,1.48,0,.15,0,.19.05.19.19,0,.33,0,.65,0,.98,0,.15-.05.19-.19.19-.25,0-.5,0-.74,0Zm-.62-1.06v.75h1.25v-.75h-1.25Z"/><path class="cls-10" d="m148.9,109.51c.24,0,.48,0,.72,0,.15,0,.2.05.2.2,0,.33,0,.65,0,.98,0,.14-.05.19-.19.19-.5,0-.99,0-1.49,0-.14,0-.19-.05-.19-.19,0-.33,0-.66,0-.99,0-.14.05-.19.2-.19.25,0,.5,0,.74,0Zm-.64.3v.75h1.26v-.75h-1.26Z"/><path class="cls-10" d="m151.18,107.44c-.25,0-.5,0-.74,0-.13,0-.19-.05-.19-.19,0-.33,0-.66,0-.99,0-.13.05-.19.19-.19.5,0,.99,0,1.49,0,.13,0,.19.05.19.19,0,.33,0,.66,0,.99,0,.13-.05.19-.19.19-.25,0-.5,0-.74,0Zm-.63-1.06v.75h1.26v-.75h-1.26Z"/><path class="cls-10" d="m151.19,107.79c.25,0,.5,0,.74,0,.14,0,.19.05.19.18,0,.33,0,.66,0,.99,0,.13-.05.19-.19.19-.5,0-.99,0-1.49,0-.13,0-.19-.05-.19-.19,0-.33,0-.66,0-.99,0-.13.05-.18.19-.18.25,0,.5,0,.74,0Zm.63.3h-1.26v.75h1.26v-.75Z"/><path class="cls-10" d="m151.18,110.87c-.24,0-.49,0-.73,0-.15,0-.2-.05-.2-.2,0-.32,0-.65,0-.97,0-.14.05-.19.19-.19.49,0,.99,0,1.48,0,.15,0,.2.05.2.2,0,.32,0,.65,0,.97,0,.14-.05.19-.19.19-.25,0-.5,0-.74,0Zm-.63-1.06v.75h1.26v-.75h-1.26Z"/><path class="cls-10" d="m149.73,104.17c0-.17,0-.34,0-.51,0-.12.05-.18.18-.18.17,0,.33,0,.5,0,.12,0,.17.06.17.17,0,.34,0,.69,0,1.03,0,.12-.06.17-.17.17-.17,0-.33,0-.5,0-.12,0-.17-.05-.18-.18,0-.17,0-.34,0-.51Zm.31-.39v.77h.24v-.77h-.24Z"/><path class="cls-10" d="m152.09,104.56c.13,0,.25,0,.37,0,.11,0,.17.05.17.14,0,.09-.06.15-.18.15-.17,0-.33,0-.5,0-.11,0-.17-.06-.17-.17,0-.34,0-.69,0-1.03,0-.11.06-.17.17-.17.17,0,.34,0,.51,0,.1,0,.16.06.16.15,0,.09-.06.15-.17.15-.12,0-.25,0-.38,0v.24c.13,0,.25,0,.38,0,.08,0,.14.03.16.11.03.1-.04.18-.15.19-.13,0-.25,0-.39,0v.24Z"/><path class="cls-10" d="m149.25,104.32h-.25c0,.06,0,.12,0,.18,0,.07,0,.15,0,.22,0,.08-.06.13-.14.13-.07,0-.13-.04-.15-.12,0-.03,0-.06,0-.08,0-.32,0-.65,0-.97,0-.02,0-.05,0-.07.01-.08.07-.13.15-.13.08,0,.14.05.14.14,0,.13,0,.25,0,.39h.26c0-.12,0-.23,0-.34,0-.12.06-.19.15-.19.09,0,.14.07.14.19,0,.33,0,.67,0,1,0,.12-.06.18-.15.19-.09,0-.15-.07-.15-.18,0-.11,0-.23,0-.35Z"/><path class="cls-10" d="m153.12,104.56c.13,0,.25,0,.37,0,.11,0,.17.05.18.14,0,.09-.06.15-.18.16-.17,0-.33,0-.5,0-.12,0-.17-.06-.17-.17,0-.34,0-.69,0-1.03,0-.11.06-.17.15-.17.09,0,.15.07.15.17,0,.26,0,.52,0,.78,0,.04,0,.08,0,.13Z"/><path class="cls-10" d="m151.03,103.78s-.09,0-.13,0c-.08,0-.13-.06-.14-.14,0-.09.04-.15.13-.15.19,0,.39,0,.59,0,.08,0,.14.06.13.15,0,.09-.06.14-.14.14-.04,0-.08,0-.13,0,0,.05,0,.1,0,.14,0,.24,0,.48,0,.71,0,.15-.05.22-.15.22-.1,0-.15-.07-.15-.22,0-.25,0-.5,0-.75,0-.03,0-.07,0-.11Z"/></g></g></g></g></g></svg>