<?xml version="1.0" encoding="UTF-8"?><svg id="Capa_2" xmlns="http://www.w3.org/2000/svg" viewBox="0 0 260.2 179.4"><g id="design"><path d="m23.6,165.9c.4-3.7.8-7.3,1.3-11-.1,1-.3,2.1-.4,3.1,3-22.3,7.8-44.4,16.5-65.2-.4.9-.8,1.9-1.2,2.8,5.2-12.3,11.8-24,19.9-34.6-.6.8-1.2,1.6-1.8,2.4,6.4-8.2,13.7-15.7,21.9-22.1-.8.6-1.6,1.2-2.4,1.8,7.2-5.5,15-10.1,23.3-13.7-.9.4-1.9.8-2.8,1.2,7.8-3.3,16.1-5.6,24.5-6.8-1,.1-2.1.3-3.1.4,7.3-1,14.6-1,21.9,0-1-.1-2.1-.3-3.1-.4,7.4,1,14.6,3,21.6,5.9-.9-.4-1.9-.8-2.8-1.2,8,3.4,15.5,7.9,22.3,13.2-.8-.6-1.6-1.2-2.4-1.8,8.4,6.5,15.8,14.1,22.3,22.5-.6-.8-1.2-1.6-1.8-2.4,8.2,10.6,14.6,22.4,19.8,34.7l-1.2-2.8c8.3,19.7,13.4,40.4,17.8,61.3,1.2,5.9,2.4,11.8,3.6,17.6.6,2.8,3,5.6,5.4,7,2.5,1.5,6.2,2.1,9.1,1.2,2.8-.9,5.6-2.7,7-5.4,1.5-2.9,1.8-5.8,1.2-9.1-6.1-30.4-12.5-60.7-25.8-88.9-11.7-24.8-30-47.3-53.7-61.5-6.1-3.7-12.7-6.6-19.5-9-6.7-2.4-13.6-3.7-20.7-4.5-14.5-1.7-29.8.5-43.6,5.4-14.9,5.4-28.3,13.5-40,24.1-10.8,9.7-19.9,21.4-27.2,33.9C13.6,90.7,5.9,121.2,1.8,151.8c-.6,4.7-1.2,9.4-1.8,14.1-.3,2.8,1.5,6.4,3.4,8.3,2,2,5.4,3.6,8.3,3.4,3-.1,6.2-1.1,8.3-3.4.6-.8,1.2-1.6,1.8-2.4,1.1-1.8,1.6-3.8,1.6-5.9h0Z" fill="#f8cadb"/><path d="m51.2,169.1c3.2-21.8,7-43.7,15.6-64.1-.3.7-.6,1.4-.9,2.1,3.7-8.7,8.3-17,13.9-24.6.3-.4.6-.8.9-1.3.8-1.1-.5.6-.5.7.2-.2.4-.5.6-.7.7-.9,1.5-1.9,2.3-2.8,1.5-1.8,3.1-3.5,4.7-5.1,1.6-1.6,3.3-3.2,5-4.7.8-.7,1.7-1.4,2.6-2.1,1.5-1.2-1.3,1-.2.1.5-.4,1.1-.8,1.6-1.2,4.3-3.1,9-5.8,13.9-7.9-.7.3-1.4.6-2.1.9,5.1-2.1,10.3-3.6,15.8-4.3-.8.1-1.5.2-2.3.3,5.2-.7,10.5-.7,15.7,0-.8-.1-1.5-.2-2.3-.3,5.1.7,10,2,14.7,3.9-.7-.3-1.4-.6-2.1-.9,4.2,1.8,8.2,4,11.9,6.8.3.2.5.4.7.6-1.1-.9-1.3-1-.6-.5.5.4,1,.8,1.5,1.2.8.7,1.7,1.4,2.5,2.1,1.8,1.6,3.6,3.2,5.2,5,1.6,1.7,3.2,3.4,4.6,5.2.3.4.7.8,1,1.3.5.7.4.5-.5-.7.2.2.4.5.6.7.7.9,1.4,1.9,2,2.8,2.7,4,4.9,8.2,6.8,12.5-.3-.7-.6-1.4-.9-2.1,8.5,20.1,13.3,41.5,17,62.9,1,6,2,12.1,2.8,18.1.3,2,2.3,4.2,4,5.2,1.9,1.1,4.6,1.5,6.7.9,2.1-.7,4.1-2,5.2-4,1.2-2.2,1.2-4.2.9-6.7-3.3-22.8-7.3-45.8-14.8-67.7-3.7-10.8-7.9-21.6-14.7-30.8-6.8-9.2-15.3-17.6-25-23.7-9.6-6-20.8-9.2-32-9.7-11.4-.5-22.7,2.1-33,6.9-19.1,8.9-34.1,26-43.9,44.3-11.3,21.1-16.4,44.6-20.1,68-.5,2.9-.9,5.8-1.3,8.7-.4,2.4-.4,4.5.9,6.7,1.1,1.8,3.1,3.5,5.2,4,2.2.5,4.7.4,6.7-.9,1.8-1.1,3.7-3,4-5.2h0Z" fill="#fff9c5"/><path d="m75.8,170.8c.2-3.3.6-6.7,1-10-.1.8-.2,1.5-.3,2.3,1.8-13.2,5.3-26.2,10.5-38.5-.3.7-.6,1.4-.9,2.1,2-4.6,4.1-9.2,6.6-13.6,1.2-2.1,2.4-4.1,3.7-6.1.6-1,1.3-2,2-2.9.3-.5.6-.9,1-1.3.4-.5,1.9-2.2,0-.1,1.6-1.8,3-3.6,4.6-5.3,1.6-1.7,3.4-3.3,5.2-4.8.2-.2.5-.4.7-.6-.3.3-.7.5-1,.8.5-.4,1.1-.8,1.6-1.2,1.1-.8,2.2-1.5,3.4-2.2,2.1-1.3,4.3-2.4,6.6-3.4-.7.3-1.4.6-2.1.9,3.1-1.3,6.4-2.2,9.8-2.7-.8.1-1.5.2-2.3.3,2.9-.4,5.8-.4,8.7,0-.8-.1-1.5-.2-2.3-.3,3,.4,5.8,1.2,8.6,2.4-.7-.3-1.4-.6-2.1-.9,1.6.7,3.1,1.5,4.6,2.3.7.4,1.5.9,2.2,1.4.3.2.6.4.9.6.3.2,1.6,1.2.3.2-1.3-1,0,0,.3.3.3.3.7.6,1,.9.6.5,1.2,1.1,1.8,1.6,1.3,1.2,2.5,2.5,3.7,3.9.6.7,1.2,1.3,1.7,2.1-.3-.4-1.2-1.6-.4-.5.3.4.5.7.8,1.1,1,1.4,1.9,2.8,2.8,4.3,1.8,3,3.4,6.2,4.8,9.4-.3-.7-.6-1.4-.9-2.1,7.8,18.6,10.5,38.9,13.2,58.8.3,2,2.3,4.2,4,5.2,1.9,1.1,4.6,1.5,6.7.9,2.1-.7,4.1-2,5.2-4,1.2-2.2,1.2-4.2.9-6.7-2.4-17.2-4.8-34.6-10.4-51.1-5.3-15.6-13.6-30-27.3-39.6-7.1-5-15.7-7.9-24.4-7.8-9,0-17.9,3.1-25.5,7.9-14.2,8.8-24,22.7-31,37.6-8.7,18.5-13.8,38.3-15.2,58.7-.3,4.5,4.2,8.9,8.7,8.7,4.9-.2,8.3-3.8,8.7-8.7h0Z" fill="#d5f2e2"/><path d="m100.7,170.2c0-3.6.4-7.2.8-10.7-.1.8-.2,1.5-.3,2.3,1.2-8.6,3.3-17,6.7-24.9-.3.7-.6,1.4-.9,2.1,1-2.4,2.2-4.8,3.4-7.1.6-1.1,1.2-2.2,1.9-3.3.3-.5.6-1,1-1.5.2-.3,1.4-1.8.4-.5-1,1.3.2-.2.4-.5.4-.4.8-.9,1.2-1.3.8-.8,1.6-1.6,2.5-2.3,1.1-1-1.9,1.3,0,0,.5-.3.9-.6,1.4-.9,1-.6,2-1.1,3-1.5-.7.3-1.4.6-2.1.9,1.8-.7,3.6-1.3,5.4-1.6-.8.1-1.5.2-2.3.3,1.6-.2,3.2-.2,4.8,0-.8-.1-1.5-.2-2.3-.3,1.9.3,3.7.8,5.5,1.5-.7-.3-1.4-.6-2.1-.9,1.7.7,3.2,1.6,4.7,2.6,1.4.9-1.6-1.4-.3-.3.3.3.7.6,1,.9.7.6,1.3,1.2,1.9,1.9.3.4.6.7.9,1.1,1,1.2-1.1-1.6-.2-.2.5.8,1.1,1.6,1.6,2.4,1,1.6,1.8,3.4,2.6,5.1-.3-.7-.6-1.4-.9-2.1,3.3,7.8,4.9,16.4,6.1,24.7-.1-.8-.2-1.5-.3-2.3.7,5.6,1.1,11.2,1,16.8,0,4.5,4,8.9,8.7,8.7,4.7-.2,8.6-3.8,8.7-8.7.2-11.5-1.5-23.2-4.3-34.4-2.9-11.3-8.2-22.1-18-28.8-4.7-3.2-10.6-5.1-16.4-5.2-5.6,0-11.5,1.8-16.2,4.9-9.7,6.3-15.1,16.6-19.3,27.1-4.5,11.4-6.7,23.7-7,35.9-.1,4.5,4.1,8.9,8.7,8.7,4.8-.2,8.5-3.8,8.7-8.7h0Z" fill="#e2def0"/><path d="m30.3,172.2c2.3,0,4.4-2,4.3-4.3-.1-2.3-1.9-4.3-4.3-4.3s-4.4,2-4.3,4.3c.1,2.3,1.9,4.3,4.3,4.3h0Z" fill="#e2def0"/><path d="m32.3,150.7c2.3,0,4.4-2,4.3-4.3-.1-2.3-1.9-4.3-4.3-4.3s-4.4,2-4.3,4.3c.1,2.3,1.9,4.3,4.3,4.3h0Z" fill="#e2def0"/><path d="m35.9,131.4c2.3,0,4.4-2,4.3-4.3-.1-2.3-1.9-4.3-4.3-4.3s-4.4,2-4.3,4.3c.1,2.3,1.9,4.3,4.3,4.3h0Z" fill="#e2def0"/><path d="m42.2,110.7c2.3,0,4.4-2,4.3-4.3-.1-2.3-1.9-4.3-4.3-4.3s-4.4,2-4.3,4.3c.1,2.3,1.9,4.3,4.3,4.3h0Z" fill="#e2def0"/><path d="m52.8,87.5c2.3,0,4.4-2,4.3-4.3-.1-2.3-1.9-4.3-4.3-4.3s-4.4,2-4.3,4.3c.1,2.3,1.9,4.3,4.3,4.3h0Z" fill="#e2def0"/><path d="m71.2,65.9l.6-.6c.4-.4.7-.9.9-1.4.3-.5.4-1.1.4-1.7,0-.6-.1-1.2-.4-1.7-.2-.5-.5-1-.9-1.4-.3-.2-.6-.5-.9-.7-.7-.4-1.4-.6-2.2-.6-.4,0-.8.1-1.1.2-.7.2-1.4.6-1.9,1.1l-.6.6c-.4.4-.7.9-.9,1.4-.3.5-.4,1.1-.4,1.7,0,.6.1,1.2.4,1.7.2.5.5,1,.9,1.4.3.2.6.5.9.7.7.4,1.4.6,2.2.6.4,0,.8-.1,1.1-.2.7-.2,1.4-.6,1.9-1.1h0Z" fill="#e2def0"/><path d="m84.8,51.7c2.3,0,4.4-2,4.3-4.3-.1-2.3-1.9-4.3-4.3-4.3s-4.4,2-4.3,4.3c.1,2.3,1.9,4.3,4.3,4.3h0Z" fill="#e2def0"/><path d="m102.7,42c2.3,0,4.4-2,4.3-4.3-.1-2.3-1.9-4.3-4.3-4.3s-4.4,2-4.3,4.3c.1,2.3,1.9,4.3,4.3,4.3h0Z" fill="#e2def0"/><path d="m132.1,36.5c2.3,0,4.4-2,4.3-4.3-.1-2.3-1.9-4.3-4.3-4.3s-4.4,2-4.3,4.3c.1,2.3,1.9,4.3,4.3,4.3h0Z" fill="#e2def0"/><path d="m162.8,44.1c2.3,0,4.4-2,4.3-4.3-.1-2.3-1.9-4.3-4.3-4.3s-4.4,2-4.3,4.3c.1,2.3,1.9,4.3,4.3,4.3h0Z" fill="#e2def0"/><path d="m186.5,62.3h.6c.6,0,1.2-.1,1.7-.4.5-.2,1-.5,1.4-.9.4-.4.7-.9.9-1.4.3-.5.4-1.1.4-1.7,0-.4-.1-.8-.2-1.2-.2-.7-.6-1.4-1.1-1.9-.3-.2-.6-.5-.9-.7-.7-.4-1.4-.6-2.2-.6h-.6c-.6,0-1.2.1-1.7.4-.5.2-1,.5-1.4.9-.4.4-.7.9-.9,1.4-.3.5-.4,1.1-.4,1.7,0,.4.1.8.2,1.1.2.7.6,1.4,1.1,1.9.3.2.6.5.9.7.7.4,1.4.6,2.2.6h0Z" fill="#e2def0"/><path d="m198.1,83c.2.2.4.4.6.6.4.4.9.7,1.4.9.5.3,1.1.4,1.7.4.6,0,1.2-.1,1.7-.4.5-.2,1-.5,1.4-.9.2-.3.5-.6.7-.9.4-.7.6-1.4.6-2.2,0-.4-.1-.8-.2-1.1-.2-.7-.6-1.4-1.1-1.9-.2-.2-.4-.4-.6-.6-.4-.4-.9-.7-1.4-.9-.5-.3-1.1-.4-1.7-.4-.6,0-1.2.1-1.7.4-.5.2-1,.5-1.4.9-.2.3-.5.6-.7.9-.4.7-.6,1.4-.6,2.2,0,.4.1.8.2,1.1.2.7.6,1.4,1.1,1.9h0Z" fill="#e2def0"/><path d="m210.3,103.5c2.3,0,4.4-2,4.3-4.3-.1-2.3-1.9-4.3-4.3-4.3s-4.4,2-4.3,4.3c.1,2.3,1.9,4.3,4.3,4.3h0Z" fill="#e2def0"/><path d="m217.6,123.2c2.3,0,4.4-2,4.3-4.3-.1-2.3-1.9-4.3-4.3-4.3s-4.4,2-4.3,4.3c.1,2.3,1.9,4.3,4.3,4.3h0Z" fill="#e2def0"/><path d="m222.5,141.7c2.3,0,4.4-2,4.3-4.3-.1-2.3-1.9-4.3-4.3-4.3s-4.4,2-4.3,4.3c.1,2.3,1.9,4.3,4.3,4.3h0Z" fill="#e2def0"/><path d="m221.4,155.5v.6c0,.6.1,1.2.4,1.7.2.5.5,1,.9,1.4.4.4.9.7,1.4.9.5.3,1.1.4,1.7.4.4,0,.8-.1,1.1-.2.7-.2,1.4-.6,1.9-1.1.2-.3.5-.6.7-.9.4-.7.6-1.4.6-2.2v-.6c0-.6-.1-1.2-.4-1.7-.2-.5-.5-1-.9-1.4-.4-.4-.9-.7-1.4-.9-.5-.3-1.1-.4-1.7-.4-.4,0-.8.1-1.1.2-.7.2-1.4.6-1.9,1.1-.2.3-.5.6-.7.9-.4.7-.6,1.4-.6,2.2h0Z" fill="#e2def0"/><path d="m229.4,178.1c2.3,0,4.4-2,4.3-4.3-.1-2.3-1.9-4.3-4.3-4.3s-4.4,2-4.3,4.3c.1,2.3,1.9,4.3,4.3,4.3h0Z" fill="#e2def0"/><path d="m64.8,170.4h-.4c-.3,0-.5.1-.7.3s-.3.5-.3.7c0,.3,0,.5.3.7.2.2.4.3.7.3h.4c.3,0,.5-.1.7-.3.2-.2.3-.5.3-.7,0-.3,0-.5-.3-.7-.2-.2-.4-.3-.7-.3h0Z" fill="#e9e0db"/><path d="m71,168.5c1.3,0,1.3-2,0-2s-1.3,2,0,2h0Z" fill="#e9e0db"/><path d="m64.4,163c1.3,0,1.3-2,0-2s-1.3,2,0,2h0Z" fill="#e9e0db"/><path d="m72.2,151.7h-.4c-.3,0-.5.1-.7.3-.2.2-.3.5-.3.7,0,.3,0,.5.3.7.2.2.4.3.7.3h.4c.3,0,.5-.1.7-.3s.3-.5.3-.7c0-.3,0-.5-.3-.7-.2-.2-.4-.3-.7-.3h0Z" fill="#e9e0db"/><path d="m64.4,152.1h-.4c-.3,0-.5.1-.7.3-.2.2-.3.5-.3.7,0,.3,0,.5.3.7.2.2.4.3.7.3h.4c.3,0,.5-.1.7-.3.2-.2.3-.5.3-.7,0-.3,0-.5-.3-.7-.2-.2-.4-.3-.7-.3h0Z" fill="#e9e0db"/><path d="m69.1,145.1h-.1c-1.3,0-1.3,2,0,2h.1c1.3,0,1.3-2,0-2h-.1c-1.3,0-1.3,2,0,2h.1c1.3,0,1.3-2,0-2h0Z" fill="#e9e0db"/><path d="m77,141h-.2c-.3,0-.5.1-.7.3s-.3.5-.3.7c0,.3,0,.5.3.7.2.2.4.3.7.3h.2c.3,0,.5-.1.7-.3.2-.2.3-.5.3-.7,0-.3,0-.5-.3-.7-.2-.2-.4-.3-.7-.3h0Z" fill="#e9e0db"/><path d="m69.7,136.3c0-.1-.1-.3-.2-.4-.1-.2-.4-.4-.6-.5-.2,0-.6,0-.8.1-.2.1-.4.3-.5.6,0,.3,0,.5.1.8,0,.1.1.3.2.4.1.2.4.4.6.5.2,0,.6,0,.8-.1.2-.1.4-.3.5-.6,0-.3,0-.5-.1-.8h0Z" fill="#e9e0db"/><path d="m74.9,130c1.3,0,1.3-2,0-2s-1.3,2,0,2h0Z" fill="#e9e0db"/><path d="m80.2,131.1h-.2c-.3,0-.5.1-.7.3-.2.2-.3.5-.3.7,0,.3,0,.5.3.7.2.2.4.3.7.3h.2c.3,0,.5-.1.7-.3s.3-.5.3-.7c0-.3,0-.5-.3-.7-.2-.2-.4-.3-.7-.3h0Z" fill="#e9e0db"/><path d="m73.2,117.9c0,0-.1.1-.2.2-.2.2-.3.5-.3.7s.1.5.3.7c.2.2.4.3.7.3.3,0,.5-.1.7-.3,0,0,.1-.1.2-.2.2-.2.3-.5.3-.7s-.1-.5-.3-.7c-.2-.2-.4-.3-.7-.3-.3,0-.5.1-.7.3h0Z" fill="#e9e0db"/><path d="m81.3,118.5s0,0,0,0c0,0,0-.2,0-.3,0,0,0,0,0,0,0,0,0-.2.1-.2,0,0,0,0,0,0,0,0,.1-.1.2-.2,0,0,0,0,0,0,0,0,.1-.1.2-.2,0,0,0,0,0,0,0,0,.2,0,.2-.1,0,0,0,0,0,0,0,0,.2,0,.3,0,0,0,0,0,0,0,0,0,.2,0,.3,0,0,0,0,0,0,0,0,0,.2,0,.2.1,0,0,0,0,0,0,0,0,.1.1.2.2,0,0,0,0,0,0,0,0,.1.1.2.2,0,0,0,0,0,0,0,0,0,.2.1.2,0,0,0,0,0,0,0,0,0,.2,0,.3,0,0,0,0,0,0,0-.2-.1-.6-.3-.7-.2-.2-.5-.3-.7-.3-.3,0-.5,0-.7.3,0,0-.1.1-.2.2,0,.2-.1.3-.1.5,0,.3.1.6.3.8.2.2.5.3.8.3.6,0,1.1-.5,1.1-1.1,0-.3-.1-.5-.3-.7s-.5-.3-.7-.3c-.3,0-.5,0-.7.3-.2.2-.3.4-.3.7h0Z" fill="#e9e0db"/><path d="m81.3,109.1h-.2c-.3,0-.5.1-.7.3-.2.2-.3.5-.3.7,0,.3,0,.5.3.7.2.2.4.3.7.3h.2c.3,0,.5-.1.7-.3.2-.2.3-.5.3-.7,0-.3,0-.5-.3-.7-.2-.2-.4-.3-.7-.3h0Z" fill="#e9e0db"/><path d="m90.1,107.7h-.2c-.3,0-.5.1-.7.3-.2.2-.3.5-.3.7,0,.3,0,.5.3.7.2.2.4.3.7.3h.2c.3,0,.5-.1.7-.3s.3-.5.3-.7c0-.3,0-.5-.3-.7-.2-.2-.4-.3-.7-.3h0Z" fill="#e9e0db"/><path d="m83.9,121.9h-.2c-.3,0-.5.1-.7.3s-.3.5-.3.7c0,.3,0,.5.3.7.2.2.4.3.7.3h.2c.3,0,.5-.1.7-.3.2-.2.3-.5.3-.7,0-.3,0-.5-.3-.7-.2-.2-.4-.3-.7-.3h0Z" fill="#e9e0db"/><path d="m83.7,101.5v-.2c0-.3-.1-.5-.3-.7-.2-.2-.5-.3-.7-.3-.3,0-.5,0-.7.3-.2.2-.3.4-.3.7v.2c0,.3.1.5.3.7.2.2.5.3.7.3.3,0,.5,0,.7-.3.2-.2.3-.4.3-.7h0Z" fill="#e9e0db"/><path d="m91.5,91.5c0-.1-.1-.3-.2-.4-.1-.2-.4-.4-.6-.5-.2,0-.6,0-.8.1-.2.1-.4.3-.5.6,0,.3,0,.5.1.8,0,.1.1.3.2.4.1.2.4.4.6.5.2,0,.6,0,.8-.1.2-.1.4-.3.5-.6,0-.3,0-.5-.1-.8h0Z" fill="#e9e0db"/><path d="m88.7,100.2h.2c.3,0,.5-.1.7-.3s.3-.5.3-.7c0-.3,0-.5-.3-.7-.2-.2-.4-.3-.7-.3h-.2c-.3,0-.5.1-.7.3s-.3.5-.3.7c0,.3,0,.5.3.7.2.2.4.3.7.3h0Z" fill="#e9e0db"/><path d="m95.5,101.1h-.2c-.3,0-.5.1-.7.3-.2.2-.3.5-.3.7,0,.3,0,.5.3.7.2.2.4.3.7.3h.2c.3,0,.5-.1.7-.3s.3-.5.3-.7c0-.3,0-.5-.3-.7-.2-.2-.4-.3-.7-.3h0Z" fill="#e9e0db"/><path d="m100,82.5c1.3,0,1.3-2,0-2s-1.3,2,0,2h0Z" fill="#e9e0db"/><path d="m96.7,90.1c1.3,0,1.3-2,0-2s-1.3,2,0,2h0Z" fill="#e9e0db"/><path d="m102.7,94.2c1.3,0,1.3-2,0-2s-1.3,2,0,2h0Z" fill="#e9e0db"/><path d="m107.8,77.6c1.3,0,1.3-2,0-2s-1.3,2,0,2h0Z" fill="#e9e0db"/><path d="m104.8,83.4v.2c0,.3.1.5.3.7.2.2.5.3.7.3.3,0,.5,0,.7-.3.2-.2.3-.4.3-.7v-.2c0-.3-.1-.5-.3-.7-.2-.2-.5-.3-.7-.3-.3,0-.5,0-.7.3-.2.2-.3.4-.3.7h0Z" fill="#e9e0db"/><path d="m111.9,87.5v-.2c0-.3-.1-.5-.3-.7s-.5-.3-.7-.3c-.3,0-.5,0-.7.3-.2.2-.3.4-.3.7v.2c0,.3.1.5.3.7.2.2.5.3.7.3.3,0,.5,0,.7-.3.2-.2.3-.4.3-.7h0Z" fill="#e9e0db"/><path d="m115,72.3h-.2c-.3,0-.5.1-.7.3s-.3.5-.3.7c0,.3,0,.5.3.7.2.2.4.3.7.3h.2c.3,0,.5-.1.7-.3.2-.2.3-.5.3-.7,0-.3,0-.5-.3-.7-.2-.2-.4-.3-.7-.3h0Z" fill="#e9e0db"/><path d="m113.4,79.2v.2c0,.3.1.5.3.7.2.2.5.3.7.3.3,0,.5,0,.7-.3.2-.2.3-.4.3-.7v-.2c0-.3-.1-.5-.3-.7s-.5-.3-.7-.3c-.3,0-.5,0-.7.3-.2.2-.3.4-.3.7h0Z" fill="#e9e0db"/><path d="m119.6,85c1.3,0,1.3-2,0-2s-1.3,2,0,2h0Z" fill="#e9e0db"/><path d="m123.7,70.8h-.2c-.3,0-.5.1-.7.3-.2.2-.3.5-.3.7,0,.3,0,.5.3.7.2.2.4.3.7.3h.2c.3,0,.5-.1.7-.3s.3-.5.3-.7c0-.3,0-.5-.3-.7-.2-.2-.4-.3-.7-.3h0Z" fill="#e9e0db"/><path d="m121.2,78.4c1.3,0,1.3-2,0-2s-1.3,2,0,2h0Z" fill="#e9e0db"/><path d="m131.1,69.1h.2c.3,0,.5-.1.7-.3.2-.2.3-.5.3-.7,0-.3,0-.5-.3-.7-.2-.2-.4-.3-.7-.3h-.2c-.3,0-.5.1-.7.3s-.3.5-.3.7c0,.3,0,.5.3.7.2.2.4.3.7.3h0Z" fill="#e9e0db"/><path d="m139.9,71.6c1.3,0,1.3-2,0-2s-1.3,2,0,2h0Z" fill="#e9e0db"/><path d="m146.5,76.1c1.3,0,1.3-2,0-2s-1.3,2,0,2h0Z" fill="#e9e0db"/><path d="m134.1,75.7c0-.1-.1-.3-.2-.4-.1-.2-.4-.4-.6-.5-.2,0-.6,0-.8.1-.2.1-.4.3-.5.6,0,.3,0,.5.1.8s.1.3.2.4c.1.2.4.4.6.5.2,0,.6,0,.8-.1.2-.1.4-.3.5-.6,0-.3,0-.5-.1-.8h0Z" fill="#e9e0db"/><path d="m127.3,79.7c-.6.4-.8,1-.6,1.7.2.7.8,1.1,1.5,1,.7,0,1.2-.7,1.2-1.4,0-.3,0-.6-.2-.8-.2-.3-.5-.5-.8-.7-.2,0-.6,0-.8.1-.2.1-.4.4-.5.6,0,.3,0,.5.1.8.2.2.3.4.6.5-.1,0-.2-.1-.3-.2.1,0-.1-.2,0-.1,0,0,0-.2,0-.2,0,0,0,0,0,0,0,0,0-.2,0-.3,0,0,0,.1,0,.2,0,0,0-.2,0-.3,0,0,0,0,0,0,0-.2.1-.2,0-.2,0,0,0,0,0,0,0,0,.1-.1.2-.2,0,0,.3,0,.1,0,0,0,.2,0,.3,0,0,0,0,0,0,0,0,0,.2,0,.3,0-.2,0,.2.1,0,0,0,0,.2.2.1,0,.2.2.1.2,0,0,.1.3,0,.2,0,0,0,0,0,.2,0,.3,0,0,0,0,0-.1,0,0,0,.2,0,.3,0-.1,0-.2,0,0,0,0,0,0-.1.1-.2.1-.2.2-.1,0,.4-.3.7-.9.4-1.4-.3-.5-.9-.7-1.4-.4h0Z" fill="#e9e0db"/><path d="m141.5,81.7v-.2c0-.3-.1-.5-.3-.7-.2-.2-.5-.3-.7-.3-.3,0-.5,0-.7.3-.2.2-.3.4-.3.7v.2c0,.3.1.5.3.7s.5.3.7.3c.3,0,.5,0,.7-.3.2-.2.3-.4.3-.7h0Z" fill="#e9e0db"/><path d="m153.9,77.8c1.3,0,1.3-2,0-2s-1.3,2,0,2h0Z" fill="#e9e0db"/><path d="m142.6,77.6c1.3,0,1.3-2,0-2s-1.3,2,0,2h0Z" fill="#e9e0db"/><path d="m148.8,83.5c1.3,0,1.3-2,0-2s-1.3,2,0,2h0Z" fill="#e9e0db"/><path d="m145.5,87.6c1.3,0,1.3-2,0-2s-1.3,2,0,2h0Z" fill="#e9e0db"/><path d="m160.1,82.7c1.3,0,1.3-2,0-2s-1.3,2,0,2h0Z" fill="#e9e0db"/><path d="m156.4,86.2c1.3,0,1.3-2,0-2s-1.3,2,0,2h0Z" fill="#e9e0db"/><path d="m155.4,89.4h-.2c-.3,0-.5.1-.7.3-.2.2-.3.5-.3.7,0,.3,0,.5.3.7.2.2.4.3.7.3h.2c.3,0,.5-.1.7-.3.2-.2.3-.5.3-.7,0-.3,0-.5-.3-.7-.2-.2-.4-.3-.7-.3h0Z" fill="#e9e0db"/><path d="m164.9,87.3c0,.1.1.3.2.4.1.2.4.4.6.5.2,0,.6,0,.8-.1.2-.1.4-.3.5-.6,0-.3,0-.5-.1-.8,0-.1-.1-.3-.2-.4-.1-.2-.4-.4-.6-.5-.2,0-.6,0-.8.1-.2.1-.4.3-.5.6,0,.3,0,.5.1.8h0Z" fill="#e9e0db"/><path d="m162.8,93.8c1.3,0,1.3-2,0-2s-1.3,2,0,2h0Z" fill="#e9e0db"/><path d="m159.3,97.6h-.2c-.3,0-.5.1-.7.3-.2.2-.3.5-.3.7,0,.3,0,.5.3.7.2.2.4.3.7.3h.2c.3,0,.5-.1.7-.3.2-.2.3-.5.3-.7,0-.3,0-.5-.3-.7-.2-.2-.4-.3-.7-.3h0Z" fill="#e9e0db"/><path d="m166.1,103.1c1.3,0,1.3-2,0-2s-1.3,2,0,2h0Z" fill="#e9e0db"/><path d="m171.2,97.3c1.3,0,1.3-2,0-2s-1.3,2,0,2h0Z" fill="#e9e0db"/><path d="m175.5,102.9c1.3,0,1.3-2,0-2s-1.3,2,0,2h0Z" fill="#e9e0db"/><path d="m171.2,108.4c1.3,0,1.3-2,0-2s-1.3,2,0,2h0Z" fill="#e9e0db"/><path d="m170.2,107.4v.2c0,.3.1.5.3.7.2.2.5.3.7.3.3,0,.5,0,.7-.3.2-.2.3-.4.3-.7v-.2c0-.3-.1-.5-.3-.7s-.5-.3-.7-.3c-.3,0-.5,0-.7.3-.2.2-.3.4-.3.7h0Z" fill="#e9e0db"/><path d="m166.1,109.7h-.2c-.3,0-.5.1-.7.3-.2.2-.3.5-.3.7,0,.3,0,.5.3.7.2.2.4.3.7.3h.2c.3,0,.5-.1.7-.3.2-.2.3-.5.3-.7,0-.3,0-.5-.3-.7-.2-.2-.4-.3-.7-.3h0Z" fill="#e9e0db"/><path d="m178.4,111.7c1.3,0,1.3-2,0-2s-1.3,2,0,2h0Z" fill="#e9e0db"/><path d="m174.7,115.4c1.3,0,1.3-2,0-2s-1.3,2,0,2h0Z" fill="#e9e0db"/><path d="m172.8,119h-.4c-.3,0-.5.1-.7.3s-.3.5-.3.7c0,.3,0,.5.3.7.2.2.4.3.7.3h.4c.3,0,.5-.1.7-.3s.3-.5.3-.7c0-.3,0-.5-.3-.7-.2-.2-.4-.3-.7-.3h0Z" fill="#e9e0db"/><path d="m168.5,119.3c1.3,0,1.3-2,0-2s-1.3,2,0,2h0Z" fill="#e9e0db"/><path d="m182.1,122.6c1.3,0,1.3-2,0-2s-1.3,2,0,2h0Z" fill="#e9e0db"/><path d="m177.6,127.2c1.3,0,1.3-2,0-2s-1.3,2,0,2h0Z" fill="#e9e0db"/><path d="m173.9,132.9c1.3,0,1.3-2,0-2s-1.3,2,0,2h0Z" fill="#e9e0db"/><path d="m182.8,133c0,.1.1.3.2.4.1.2.4.4.6.5.2,0,.6,0,.8-.1.2-.1.4-.3.5-.6,0-.3,0-.5-.1-.8,0-.1-.1-.3-.2-.4-.1-.2-.4-.4-.6-.5-.2,0-.6,0-.8.1-.2.1-.4.3-.5.6,0,.3,0,.5.1.8h0Z" fill="#e9e0db"/><path d="m170.6,127.6c1.3,0,1.3-2,0-2s-1.3,2,0,2h0Z" fill="#e9e0db"/><path d="m179.4,137.2c1.3,0,1.3-2,0-2s-1.3,2,0,2h0Z" fill="#e9e0db"/><path d="m186.8,139.9c1.3,0,1.3-2,0-2s-1.3,2,0,2h0Z" fill="#e9e0db"/><path d="m174.1,141.3c1.3,0,1.3-2,0-2s-1.3,2,0,2h0Z" fill="#e9e0db"/><path d="m182.1,144.2c1.3,0,1.3-2,0-2s-1.3,2,0,2h0Z" fill="#e9e0db"/><path d="m187.5,145.5c-.6,0-1.1.5-1.1,1.1,0,.3,0,.5.2.7,0,.1.1.2.3.3.1,0,.4.2.5.1.1,0,.3,0,.4,0,.1,0,.2-.1.3-.2.2-.2.3-.5.3-.7,0-.3,0-.5-.3-.7-.2-.2-.5-.3-.7-.3,0,0,0,0,0,0,0,0,.2,0,.3,0,0,0,0,0,0,0,0,0,.2,0,.2.1,0,0,0,0,0,0,0,0,.1.1.2.2,0,0,0,0,0,0l.2.2s0,0,0,0c0,0,0,.2.1.2,0,0,0,0,0,0,0,0,0,.2,0,.3,0,0,0,0,0,0,0,0,0,.2,0,.3,0,0,0,0,0,0,0,0,0,.2-.1.2,0,0,0,0,0,0l-.2.2s0,0,0,0l-.2.2s0,0,0,0c0,0-.2,0-.2.1,0,0,0,0,0,0,0,0-.2,0-.3,0,0,0,0,0,0,0,.2,0,.5-.1.7-.3.2-.2.3-.5.3-.7,0-.3,0-.5-.3-.7-.2-.2-.4-.3-.7-.3h0Z" fill="#e9e0db"/><path d="m178.4,150c1.3,0,1.3-2,0-2s-1.3,2,0,2h0Z" fill="#e9e0db"/><path d="m176.1,154.1c-.6,0-1.1.5-1.1,1.1,0,.3,0,.5.2.7,0,.1.1.2.3.3.1,0,.4.2.5.1.1,0,.3,0,.4,0,.1,0,.2-.1.3-.2.2-.2.3-.5.3-.7,0-.3,0-.5-.3-.7-.2-.2-.5-.3-.7-.3,0,0,0,0,0,0,0,0,.2,0,.3,0,0,0,0,0,0,0,0,0,.2,0,.2.1,0,0,0,0,0,0l.2.2s0,0,0,0c0,0,.1.1.2.2,0,0,0,0,0,0,0,0,0,.2.1.2,0,0,0,0,0,0,0,0,0,.2,0,.3,0,0,0,0,0,0,0,0,0,.2,0,.3,0,0,0,0,0,0,0,0,0,.2-.1.2h0c0,0-.1.1-.2.2,0,0,0,0,0,0l-.2.2s0,0,0,0c0,0-.2,0-.2.1,0,0,0,0,0,0,0,0-.2,0-.3,0,0,0,0,0,0,0,.2,0,.5-.1.7-.3.2-.2.3-.5.3-.7,0-.3,0-.5-.3-.7-.2-.2-.4-.3-.7-.3h0Z" fill="#e9e0db"/><path d="m183.3,156c1.3,0,1.3-2,0-2s-1.3,2,0,2h0Z" fill="#e9e0db"/><path d="m188.7,154.7c1.3,0,1.3-2,0-2s-1.3,2,0,2h0Z" fill="#e9e0db"/><path d="m180.7,162.8c1.3,0,1.3-2,0-2s-1.3,2,0,2h0Z" fill="#e9e0db"/><path d="m186.6,162.5c1.3,0,1.3-2,0-2s-1.3,2,0,2h0Z" fill="#e9e0db"/><path d="m190.5,166c1.3,0,1.3-2,0-2s-1.3,2,0,2h0Z" fill="#e9e0db"/><path d="m186.4,172.4c1.3,0,1.3-2,0-2s-1.3,2,0,2h0Z" fill="#e9e0db"/><path d="m179.8,171.2c1.3,0,1.3-2,0-2s-1.3,2,0,2h0Z" fill="#e9e0db"/><path d="m139.2,155.9c-.9,3.8-3.2,7.2-5.5,10.2-2.4,3.1-5.1,5.9-7.8,8.8-.5.5-1.3.5-1.8,0-3.2-3-6.5-6.1-8.9-9.8-2-3.2-3.3-6.9-3.3-10.7,0-3.3,1.2-7.1,4.4-8.7,3.5-1.8,6.4.9,8.3,3.7.3.4.6.9.8,1.4.6-1.7,1.6-3.2,3.1-4.3,2.6-1.9,6-1.7,8.4.5,2.5,2.3,3,5.8,2.3,9Z" fill="#efb1b4"/></g></svg>